<svg width="353" height="165" viewBox="0 0 353 165" fill="none" xmlns="http://www.w3.org/2000/svg">
<g clip-path="url(#clip0_1008_28)">
<path d="M98.5 10.5L31.0711 77.9289C27.1658 81.8342 27.1658 88.1658 31.0711 92.0711L98.5 159.5" stroke="black" stroke-width="20"/>
<path d="M119 130L157.045 91.5319C160.899 87.6358 160.899 81.3642 157.045 77.4681L119 39" stroke="black" stroke-width="20"/>
<line x1="200" y1="4" x2="200" y2="165" stroke="black" stroke-width="2"/>
<path d="M234.802 133V57.6564H221.224V42.8548H268.3V57.6564H254.834V133H234.802ZM276.236 133V42.8548H299.051C306.915 42.8548 313.036 43.8564 317.414 45.8597C321.791 47.7887 324.87 50.8677 326.651 55.0968C328.432 59.2516 329.322 64.6677 329.322 71.3452V104.065C329.322 110.816 328.432 116.344 326.651 120.647C324.87 124.876 321.791 127.992 317.414 129.995C313.111 131.998 307.064 133 299.273 133H276.236ZM296.157 119.2H299.273C302.315 119.2 304.504 118.755 305.84 117.865C307.175 116.974 307.991 115.639 308.288 113.858C308.659 112.077 308.844 109.852 308.844 107.181V67.8952C308.844 65.2242 308.622 63.0726 308.177 61.4403C307.806 59.8081 306.953 58.621 305.617 57.879C304.282 57.1371 302.13 56.7661 299.162 56.7661H296.157V119.2Z" fill="black"/>
</g>
<defs>
<clipPath id="clip0_1008_28">
<rect width="353" height="165" fill="white"/>
</clipPath>
</defs>
</svg>
